<svg xmlns="http://www.w3.org/2000/svg" xmlns:xlink="http://www.w3.org/1999/xlink" width="100" zoomAndPan="magnify" viewBox="0 0 75 74.999997" height="100" preserveAspectRatio="xMidYMid meet" version="1.0"><path fill="#8a663f" d="M 46.125 51.109375 C 45.960938 51.109375 45.796875 51.082031 45.632812 51.035156 L 27.035156 44.847656 C 26.742188 44.757812 26.484375 44.566406 26.304688 44.324219 L 4.605469 16.46875 C 4.457031 16.273438 4.351562 16.050781 4.304688 15.8125 C 4.242188 15.492188 2.847656 7.871094 9.714844 3.191406 C 12.1875 1.503906 14.742188 0.652344 17.3125 0.652344 C 20.140625 0.652344 21.9375 1.703125 22.136719 1.820312 C 22.296875 1.914062 22.4375 2.042969 22.550781 2.191406 L 44.25 30.046875 C 44.414062 30.246094 44.515625 30.488281 44.558594 30.742188 L 47.59375 48.898438 C 47.6875 49.097656 47.746094 49.335938 47.746094 49.570312 C 47.746094 50.4375 46.921875 51.210938 46.164062 51.117188 C 46.140625 51.109375 46.128906 51.109375 46.125 51.109375 Z M 28.460938 42.050781 L 44.167969 47.277344 L 41.5625 31.625 L 20.308594 4.347656 C 19.878906 4.152344 18.804688 3.742188 17.3125 3.742188 C 15.378906 3.742188 13.410156 4.414062 11.460938 5.742188 C 6.976562 8.796875 7.160156 13.589844 7.304688 14.886719 Z M 28.460938 42.050781 " fill-opacity="1" fill-rule="nonzero"/><path fill="#8a663f" d="M 12.457031 25.574219 C 11.789062 25.574219 11.171875 25.140625 10.972656 24.476562 C 10.222656 21.996094 10.28125 16.3125 15.851562 12.519531 C 22.582031 7.933594 28.566406 10.429688 28.820312 10.542969 C 29.605469 10.882812 29.96875 11.796875 29.625 12.578125 C 29.285156 13.359375 28.375 13.722656 27.59375 13.386719 C 27.378906 13.300781 22.855469 11.492188 17.59375 15.074219 C 12.492188 18.546875 13.921875 23.53125 13.9375 23.578125 C 14.1875 24.40625 13.722656 25.265625 12.898438 25.507812 C 12.753906 25.554688 12.601562 25.574219 12.457031 25.574219 Z M 12.457031 25.574219 " fill-opacity="1" fill-rule="nonzero"/><path fill="#8a663f" d="M 27.519531 44.921875 C 27.378906 44.921875 27.234375 44.902344 27.09375 44.855469 C 26.269531 44.625 25.792969 43.757812 26.027344 42.945312 L 29.128906 32.113281 C 29.320312 31.449219 29.925781 30.992188 30.613281 30.992188 L 43.015625 30.992188 C 43.871094 30.992188 44.566406 31.6875 44.566406 32.539062 C 44.566406 33.390625 43.871094 34.085938 43.015625 34.085938 L 31.785156 34.085938 L 29.007812 43.800781 C 28.816406 44.472656 28.199219 44.921875 27.519531 44.921875 Z M 27.519531 44.921875 " fill-opacity="1" fill-rule="nonzero"/><path fill="#8a663f" d="M 30.621094 34.085938 C 30.144531 34.085938 29.667969 33.867188 29.367188 33.449219 L 15.71875 14.703125 C 15.210938 14.003906 15.367188 13.042969 16.058594 12.539062 C 16.753906 12.035156 17.714844 12.191406 18.21875 12.882812 L 31.871094 31.628906 C 32.375 32.324219 32.222656 33.289062 31.53125 33.789062 C 31.261719 33.992188 30.945312 34.085938 30.621094 34.085938 Z M 30.621094 34.085938 " fill-opacity="1" fill-rule="nonzero"/><path fill="#8a663f" d="M 47.773438 52.566406 C 47.320312 52.566406 46.871094 52.371094 46.5625 51.984375 C 46.027344 51.308594 46.136719 50.34375 46.804688 49.808594 C 55.539062 42.828125 61.023438 34.089844 61.476562 26.433594 C 61.671875 22.996094 60.773438 20.074219 58.949219 18.226562 C 53.832031 13.050781 43.21875 14.292969 35.308594 20.988281 C 34.65625 21.542969 33.675781 21.449219 33.121094 20.800781 C 32.566406 20.144531 32.652344 19.175781 33.304688 18.617188 C 42.429688 10.902344 54.925781 9.757812 61.152344 16.050781 C 63.609375 18.542969 64.828125 22.292969 64.574219 26.613281 C 64.070312 35.132812 58.152344 44.710938 48.746094 52.226562 C 48.449219 52.449219 48.109375 52.566406 47.773438 52.566406 Z M 47.773438 52.566406 " fill-opacity="1" fill-rule="nonzero"/><path fill="#8a663f" d="M 25.46875 73.679688 C 18.707031 73.679688 13.886719 71.289062 11.148438 69.410156 C 8.1875 67.386719 6.394531 63.859375 5.964844 59.21875 C 5.101562 49.890625 9.816406 37.214844 16.695312 30.339844 C 17.296875 29.738281 18.285156 29.738281 18.886719 30.339844 C 19.488281 30.945312 19.488281 31.925781 18.886719 32.53125 C 12.683594 38.71875 8.277344 50.5625 9.050781 58.933594 C 9.292969 61.511719 10.152344 64.96875 12.898438 66.859375 C 18.660156 70.804688 34.839844 77.210938 60.527344 51.574219 C 67.464844 44.648438 71.382812 34.472656 71.011719 24.351562 C 70.765625 17.714844 68.59375 12.019531 65.195312 9.085938 C 59.394531 4.089844 42.402344 5.242188 31.574219 13.652344 C 30.898438 14.179688 29.925781 14.054688 29.398438 13.375 C 28.871094 12.703125 28.996094 11.730469 29.667969 11.207031 C 40.808594 2.5625 59.753906 0.308594 67.21875 6.75 C 71.3125 10.285156 73.828125 16.65625 74.109375 24.238281 C 74.511719 35.199219 70.257812 46.238281 62.71875 53.765625 C 47.074219 69.371094 34.535156 73.679688 25.46875 73.679688 Z M 25.46875 73.679688 " fill-opacity="1" fill-rule="nonzero"/><path fill="#8a663f" d="M 2.722656 51.109375 C 2.691406 51.109375 2.660156 51.109375 2.632812 51.109375 C 1.78125 51.050781 1.125 50.328125 1.171875 49.476562 C 1.210938 48.902344 2.109375 35.351562 12.800781 24.78125 C 13.40625 24.175781 14.394531 24.1875 14.992188 24.792969 C 15.59375 25.398438 15.585938 26.378906 14.980469 26.980469 C 5.15625 36.6875 4.273438 49.527344 4.261719 49.652344 C 4.222656 50.476562 3.539062 51.109375 2.722656 51.109375 Z M 2.722656 51.109375 " fill-opacity="1" fill-rule="nonzero"/></svg>