<svg xmlns="http://www.w3.org/2000/svg" xmlns:xlink="http://www.w3.org/1999/xlink" width="100" zoomAndPan="magnify" viewBox="0 0 75 74.999997" height="100" preserveAspectRatio="xMidYMid meet" version="1.0"><path fill="#8a663f" d="M 37.5 72.816406 C 18.027344 72.816406 2.183594 56.972656 2.183594 37.5 C 2.183594 18.027344 18.027344 2.183594 37.5 2.183594 C 56.972656 2.183594 72.816406 18.027344 72.816406 37.5 C 72.816406 56.972656 56.972656 72.816406 37.5 72.816406 Z M 37.5 0 C 16.824219 0 0 16.820312 0 37.5 C 0 58.179688 16.824219 75 37.5 75 C 58.175781 75 75 58.179688 75 37.5 C 75 16.820312 58.175781 0 37.5 0 " fill-opacity="1" fill-rule="nonzero"/><path fill="#8a663f" d="M 59.34375 47.628906 C 59.34375 48.519531 59.082031 49.351562 58.628906 50.050781 C 58.625 50.046875 58.625 50.042969 58.621094 50.042969 L 44.46875 38.027344 L 57.878906 25.414062 C 58.175781 25.132812 58.265625 24.726562 58.175781 24.359375 C 58.898438 25.15625 59.34375 26.210938 59.34375 27.371094 Z M 54.851562 52.121094 L 20.148438 52.121094 C 19.390625 52.121094 18.679688 51.929688 18.050781 51.597656 C 22.292969 47.992188 30.859375 40.613281 30.941406 40.546875 L 31.785156 39.828125 C 32.097656 40.121094 32.273438 40.28125 32.273438 40.28125 C 33.691406 41.617188 35.429688 42.285156 37.171875 42.285156 C 38.910156 42.285156 40.652344 41.617188 42.070312 40.28125 L 42.867188 39.535156 L 57.027344 51.554688 C 56.382812 51.914062 55.640625 52.121094 54.851562 52.121094 Z M 16.417969 50.128906 C 15.9375 49.414062 15.65625 48.554688 15.65625 47.628906 L 15.65625 27.371094 C 15.65625 26.585938 15.859375 25.847656 16.214844 25.207031 C 20.417969 29.15625 26.886719 35.226562 30.183594 38.324219 L 29.523438 38.882812 C 29.433594 38.960938 20.632812 46.542969 16.460938 50.082031 C 16.445312 50.097656 16.433594 50.113281 16.417969 50.128906 Z M 20.148438 22.878906 L 54.851562 22.878906 C 55.695312 22.878906 56.484375 23.117188 57.160156 23.523438 C 56.882812 23.519531 56.601562 23.613281 56.382812 23.820312 L 55.550781 24.601562 L 40.574219 38.691406 C 38.570312 40.574219 35.773438 40.574219 33.769531 38.691406 C 33.769531 38.691406 24.308594 29.816406 18.390625 24.253906 C 18.15625 24.03125 17.925781 23.816406 17.703125 23.609375 C 18.40625 23.148438 19.246094 22.878906 20.148438 22.878906 Z M 54.851562 20.695312 L 20.148438 20.695312 C 16.464844 20.695312 13.472656 23.691406 13.472656 27.371094 L 13.472656 47.628906 C 13.472656 51.308594 16.464844 54.304688 20.148438 54.304688 L 54.851562 54.304688 C 58.535156 54.304688 61.527344 51.308594 61.527344 47.628906 L 61.527344 27.371094 C 61.527344 23.691406 58.535156 20.695312 54.851562 20.695312 " fill-opacity="1" fill-rule="nonzero"/></svg>