<svg xmlns="http://www.w3.org/2000/svg" xmlns:xlink="http://www.w3.org/1999/xlink" width="100" zoomAndPan="magnify" viewBox="0 0 75 74.999997" height="100" preserveAspectRatio="xMidYMid meet" version="1.0"><path fill="#8a663f" d="M 56.421875 28.308594 C 56.042969 25.875 53.960938 24.136719 51.527344 24.136719 L 23.503906 24.136719 C 21.070312 24.136719 18.988281 25.90625 18.609375 28.308594 C 18.261719 30.550781 17.914062 33.675781 17.914062 37.5 C 17.945312 41.324219 18.261719 44.449219 18.609375 46.691406 C 18.988281 49.09375 21.070312 50.863281 23.503906 50.863281 L 51.496094 50.863281 C 53.929688 50.863281 56.042969 49.09375 56.390625 46.691406 C 56.738281 44.417969 57.085938 41.324219 57.085938 37.5 C 57.085938 33.675781 56.769531 30.550781 56.421875 28.308594 Z M 33.363281 42.839844 L 33.363281 32.191406 L 43.28125 37.53125 Z M 33.363281 42.839844 " fill-opacity="1" fill-rule="nonzero"/><path fill="#8a663f" d="M 37.5 75 C 16.839844 75 0 58.191406 0 37.5 C 0 16.839844 16.839844 0 37.5 0 C 58.160156 0 75 16.839844 75 37.5 C 75 58.191406 58.191406 75 37.5 75 Z M 37.5 2.054688 C 17.945312 2.054688 2.054688 17.945312 2.054688 37.5 C 2.054688 57.054688 17.945312 72.945312 37.5 72.945312 C 57.054688 72.945312 72.945312 57.054688 72.945312 37.5 C 72.945312 17.945312 57.054688 2.054688 37.5 2.054688 Z M 37.5 2.054688 " fill-opacity="1" fill-rule="nonzero"/></svg>