<svg xmlns="http://www.w3.org/2000/svg" xmlns:xlink="http://www.w3.org/1999/xlink" width="500" zoomAndPan="magnify" viewBox="0 0 375 359.999987" height="480" preserveAspectRatio="xMidYMid meet" version="1.0"><defs><clipPath id="9441cdb7c4"><path d="M 49 2.578125 L 168 2.578125 L 168 121 L 49 121 Z M 49 2.578125 " clip-rule="nonzero"/></clipPath><clipPath id="bb3a0ea62f"><path d="M 212 2.578125 L 331 2.578125 L 331 121 L 212 121 Z M 212 2.578125 " clip-rule="nonzero"/></clipPath><clipPath id="94f64b28cf"><path d="M 19 165 L 361 165 L 361 357.328125 L 19 357.328125 Z M 19 165 " clip-rule="nonzero"/></clipPath></defs><path fill="#8a663f" d="M 5.191406 143 C 5.191406 138.917969 8.503906 135.609375 12.585938 135.609375 L 367.429688 135.609375 C 371.511719 135.609375 374.820312 138.917969 374.820312 143 L 374.820312 172.5625 C 374.820312 176.644531 371.511719 179.953125 367.429688 179.953125 L 12.585938 179.953125 C 8.503906 179.953125 5.191406 176.644531 5.191406 172.5625 Z M 19.976562 165.171875 L 360.035156 165.171875 L 360.035156 150.390625 L 19.976562 150.390625 Z M 19.976562 165.171875 " fill-opacity="1" fill-rule="nonzero"/><g clip-path="url(#9441cdb7c4)"><path fill="#8a663f" d="M 51.703125 108.203125 C 48.855469 111.128906 48.855469 115.746094 51.703125 118.671875 C 54.628906 121.519531 59.25 121.519531 62.175781 118.671875 L 165.671875 15.203125 C 168.523438 12.277344 168.523438 7.660156 165.671875 4.734375 C 162.746094 1.886719 158.125 1.886719 155.199219 4.734375 Z M 51.703125 108.203125 " fill-opacity="1" fill-rule="nonzero"/></g><g clip-path="url(#bb3a0ea62f)"><path fill="#8a663f" d="M 328.308594 108.203125 C 331.160156 111.128906 331.160156 115.746094 328.308594 118.671875 C 325.382812 121.519531 320.761719 121.519531 317.835938 118.671875 L 214.339844 15.203125 C 211.492188 12.277344 211.492188 7.660156 214.339844 4.734375 C 217.265625 1.886719 221.886719 1.886719 224.8125 4.734375 Z M 328.308594 108.203125 " fill-opacity="1" fill-rule="nonzero"/></g><g clip-path="url(#94f64b28cf)"><path fill="#8a663f" d="M 64.5625 351.707031 C 65.410156 355.019531 68.335938 357.328125 71.726562 357.328125 L 308.289062 357.328125 C 311.675781 357.328125 314.601562 355.019531 315.449219 351.707031 L 359.882812 174.332031 C 360.882812 170.40625 358.496094 166.402344 354.492188 165.402344 C 350.566406 164.402344 346.558594 166.789062 345.558594 170.792969 L 302.4375 342.546875 L 77.578125 342.546875 L 34.53125 170.792969 C 33.53125 166.789062 29.527344 164.402344 25.597656 165.402344 C 21.59375 166.402344 19.207031 170.40625 20.207031 174.332031 Z M 64.5625 351.707031 " fill-opacity="1" fill-rule="nonzero"/></g><path fill="#8a663f" d="M 141.722656 269.488281 C 128.015625 255.785156 128.015625 233.535156 141.722656 219.832031 C 155.507812 206.128906 177.070312 206.4375 190.085938 218.601562 C 203.097656 206.4375 224.8125 206.128906 238.519531 219.832031 C 252.304688 233.535156 252.304688 255.785156 238.519531 269.488281 L 195.398438 312.597656 C 192.472656 315.523438 187.773438 315.523438 184.925781 312.597656 Z M 180.996094 230.300781 C 173.066406 222.371094 160.128906 222.371094 152.195312 230.300781 C 144.265625 238.230469 144.265625 251.085938 152.195312 259.09375 L 190.085938 297.046875 L 228.125 259.09375 C 236.058594 251.085938 236.058594 238.230469 228.125 230.300781 C 220.117188 222.371094 207.257812 222.371094 199.324219 230.300781 C 198.167969 231.457031 197.246094 232.609375 196.398438 233.921875 C 193.550781 238.539062 186.773438 238.539062 183.847656 233.921875 C 183.078125 232.609375 182.074219 231.457031 180.996094 230.300781 Z M 180.996094 230.300781 " fill-opacity="1" fill-rule="nonzero"/></svg>