<svg xmlns="http://www.w3.org/2000/svg" xmlns:xlink="http://www.w3.org/1999/xlink" width="100" zoomAndPan="magnify" viewBox="0 0 75 74.999997" height="100" preserveAspectRatio="xMidYMid meet" version="1.0"><path fill="#8a663f" d="M 47.292969 15.953125 L 27.738281 15.953125 C 21.261719 15.953125 15.984375 21.230469 15.984375 27.707031 L 15.984375 47.261719 C 15.984375 53.738281 21.261719 59.015625 27.738281 59.015625 L 47.292969 59.015625 C 53.769531 59.015625 59.046875 53.738281 59.046875 47.261719 L 59.046875 27.738281 C 59.046875 21.230469 53.769531 15.953125 47.292969 15.953125 Z M 55.351562 47.292969 C 55.351562 51.75 51.75 55.351562 47.292969 55.351562 L 27.738281 55.351562 C 23.285156 55.351562 19.648438 51.75 19.648438 47.292969 L 19.648438 27.738281 C 19.648438 23.285156 23.285156 19.648438 27.738281 19.648438 L 47.292969 19.648438 C 51.75 19.648438 55.351562 23.25 55.351562 27.738281 Z M 55.351562 47.292969 " fill-opacity="1" fill-rule="nonzero"/><path fill="#8a663f" d="M 51.90625 25.714844 C 51.90625 27.167969 50.738281 28.371094 49.253906 28.371094 C 47.800781 28.371094 46.597656 27.199219 46.597656 25.714844 C 46.597656 24.261719 47.765625 23.0625 49.253906 23.0625 C 50.738281 23.09375 51.90625 24.261719 51.90625 25.714844 Z M 51.90625 25.714844 " fill-opacity="1" fill-rule="nonzero"/><path fill="#8a663f" d="M 37.5 26.539062 C 31.464844 26.539062 26.539062 31.464844 26.539062 37.5 C 26.539062 43.535156 31.464844 48.460938 37.5 48.460938 C 43.535156 48.460938 48.460938 43.535156 48.460938 37.5 C 48.460938 31.464844 43.566406 26.539062 37.5 26.539062 Z M 37.5 44.765625 C 33.488281 44.765625 30.234375 41.511719 30.234375 37.5 C 30.234375 33.488281 33.488281 30.234375 37.5 30.234375 C 41.511719 30.234375 44.765625 33.488281 44.765625 37.5 C 44.765625 41.511719 41.511719 44.765625 37.5 44.765625 Z M 37.5 44.765625 " fill-opacity="1" fill-rule="nonzero"/><path fill="#8a663f" d="M 37.5 75 C 16.839844 75 0 58.191406 0 37.5 C 0 16.839844 16.839844 0 37.5 0 C 58.191406 0 75 16.839844 75 37.5 C 75 58.191406 58.191406 75 37.5 75 Z M 37.5 2.054688 C 17.945312 2.054688 2.054688 17.945312 2.054688 37.5 C 2.054688 57.054688 17.945312 72.945312 37.5 72.945312 C 57.054688 72.945312 72.945312 57.054688 72.945312 37.5 C 72.945312 17.945312 57.054688 2.054688 37.5 2.054688 Z M 37.5 2.054688 " fill-opacity="1" fill-rule="nonzero"/></svg>